<svg width="916" height="1088" viewBox="0 0 916 1088" fill="none" xmlns="http://www.w3.org/2000/svg">
<g filter="url(#filter0_d_1116_7494)">
<path d="M349 924.649H32V594H349V924.649ZM64.5 636.5V887.5H308.5V636.5H64.5Z" fill="#001938"/>
</g>
<path d="M90 861V653H283V861H90Z" fill="#001938" stroke="#EA7474"/>
<path d="M885 1038V26H225V437.661H266.772V68.8814H843.228V909.356H375.38V943.661H325.253L316.899 952.237L300.19 1038H885Z" fill="#0D1C31" stroke="#D36262"/>
<path d="M283 446.848V93H818V887H374.953V576.304H333.156L283 446.848Z" fill="#001938" stroke="#D36262"/>
<path d="M265.504 469.5C266.242 477.221 268.328 489.935 272.259 503.617C276.251 517.515 282.155 532.445 290.5 544.157V568.5H99.5V544.148C103.694 537.843 109.923 526.623 115.118 513.243C120.29 499.923 124.448 484.431 124.539 469.5H265.504Z" fill="#001F38" stroke="#D36262"/>
<path d="M124.497 1045.5C123.759 1037.7 121.673 1024.86 117.742 1011.04C113.75 997.002 107.845 981.923 99.5 970.094V945.5H290.5V970.103C286.306 976.47 280.076 987.803 274.881 1001.32C269.709 1014.77 265.551 1030.42 265.461 1045.5H124.497Z" fill="#001F38" stroke="#D36262"/>
<defs>
<filter id="filter0_d_1116_7494" x="28" y="594" width="325" height="338.649" filterUnits="userSpaceOnUse" color-interpolation-filters="sRGB">
<feFlood flood-opacity="0" result="BackgroundImageFix"/>
<feColorMatrix in="SourceAlpha" type="matrix" values="0 0 0 0 0 0 0 0 0 0 0 0 0 0 0 0 0 0 127 0" result="hardAlpha"/>
<feOffset dy="4"/>
<feGaussianBlur stdDeviation="2"/>
<feComposite in2="hardAlpha" operator="out"/>
<feColorMatrix type="matrix" values="0 0 0 0 0 0 0 0 0 0 0 0 0 0 0 0 0 0 0.25 0"/>
<feBlend mode="normal" in2="BackgroundImageFix" result="effect1_dropShadow_1116_7494"/>
<feBlend mode="normal" in="SourceGraphic" in2="effect1_dropShadow_1116_7494" result="shape"/>
</filter>
</defs>
</svg>
